<svg width="39" height="43" viewBox="0 0 39 43" fill="none" xmlns="http://www.w3.org/2000/svg">
<path d="M38.653 21.3712C38.653 22.5209 38.294 23.6422 37.6255 24.5801C36.9571 25.518 36.0122 26.2262 34.9215 26.6068C34.6277 26.6688 34.3362 26.7455 34.0481 26.8324C32.052 27.4513 30.2935 28.6615 29.0075 30.3013C27.7215 31.941 26.9694 33.9321 26.8516 36.0084C26.8288 36.4293 26.8314 36.8513 26.8596 37.2719C26.7514 38.2624 26.3769 39.2056 25.7756 40.0024C25.1743 40.7992 24.3683 41.4202 23.4423 41.8002C22.5163 42.1802 21.5045 42.305 20.5133 42.1618C19.522 42.0184 18.5878 41.6122 17.8089 40.9858C17.03 40.3594 16.4351 39.5358 16.0867 38.6017C15.7383 37.6676 15.6493 36.6574 15.829 35.6773C16.0088 34.6971 16.4506 33.7832 17.1081 33.0316C17.7656 32.28 18.6145 31.7183 19.5656 31.4057C19.7818 31.3568 19.9973 31.3001 20.2121 31.2354C22.2705 30.62 24.0826 29.3772 25.3927 27.6824C26.7029 25.9877 27.4449 23.9265 27.514 21.7897C27.5223 21.5303 27.5223 21.2708 27.514 21.0113C27.4202 18.9109 26.6766 16.8904 25.3849 15.226C24.0932 13.5617 22.3164 12.3345 20.2971 11.7124C20.0419 11.6323 19.7833 11.5646 19.5236 11.507C18.5742 11.1804 17.7311 10.6047 17.0834 9.84076C16.4358 9.07685 16.0076 8.15313 15.8442 7.16719C15.6808 6.18125 15.7882 5.16971 16.155 4.23947C16.5219 3.30922 17.1346 2.49481 17.9283 1.8823C18.7221 1.26978 19.6675 0.881917 20.6646 0.75968C21.6617 0.637442 22.6735 0.785375 23.593 1.18785C24.5126 1.59032 25.3057 2.23238 25.8887 3.04619C26.4717 3.85999 26.8228 4.81532 26.905 5.81122C26.8947 6.09099 26.897 6.37527 26.905 6.65166C27.008 8.7588 27.7645 10.7825 29.0706 12.4447C30.3767 14.107 32.1682 15.3262 34.199 15.9349C34.4024 15.9958 34.6065 16.0496 34.8114 16.0962C35.9289 16.4606 36.9021 17.167 37.592 18.1143C38.2819 19.0616 38.6532 20.2015 38.653 21.3712Z" fill="white"/>
<path d="M0.323936 35.503C0.39852 34.3573 0.828398 33.2628 1.55437 32.3702C2.28033 31.4777 3.26668 30.8309 4.37756 30.519C4.68001 30.4762 4.97793 30.419 5.27131 30.3476C7.51536 29.8071 9.51073 28.53 10.9351 26.7226C12.3594 24.9151 13.1295 22.6829 13.1211 20.3864C13.293 19.4052 13.7272 18.4882 14.3783 17.7316C15.0294 16.975 15.8733 16.4067 16.8214 16.0864C17.7694 15.766 18.7867 15.7055 19.7664 15.9111C20.7462 16.1167 21.6521 16.5808 22.3893 17.2548C23.1265 17.9288 23.6676 18.7878 23.9559 19.7415C24.2441 20.6952 24.269 21.7086 24.0277 22.6751C23.7864 23.6417 23.2879 24.5258 22.5846 25.2347C21.8813 25.9435 20.9991 26.451 20.0306 26.7038C19.8038 26.7399 19.5788 26.7839 19.3558 26.8358C17.2621 27.3206 15.3743 28.447 13.9587 30.0561C12.5432 31.6652 11.6714 33.6758 11.4663 35.8042C11.4413 36.0547 11.4277 36.3062 11.4221 36.5578C11.3206 37.3454 11.0505 38.1022 10.6299 38.777C10.2093 39.4519 9.64802 40.0291 8.98394 40.4698C8.31986 40.9105 7.56845 41.2043 6.78045 41.3314C5.99245 41.4585 5.18619 41.416 4.41612 41.2067C4.21764 41.1323 4.01802 41.0646 3.815 41.0048C2.72483 40.5701 1.80044 39.8042 1.17358 38.8163C0.546722 37.8284 0.24938 36.6689 0.323936 35.503Z" fill="white"/>
</svg>
