<svg width="67" height="36" viewBox="0 0 67 36" fill="none" xmlns="http://www.w3.org/2000/svg">
<g opacity="0.4" clip-path="url(#clip0_19_527)">
<rect width="66.5354" height="35.0757" transform="translate(-6.10352e-05 0.0557861)" fill="white" style="mix-blend-mode:color-burn"/>
<path fill-rule="evenodd" clip-rule="evenodd" d="M66.5359 17.5949C66.5359 27.2795 51.6396 35.1305 33.2697 35.1305C14.8949 35.1305 0.000549316 27.2795 0.000549316 17.5949C0.000549316 7.91039 14.8949 0.0593262 33.2697 0.0593262C51.6396 0.0593262 66.5359 7.91039 66.5359 17.5949Z" fill="#C1C9CF"/>
<path fill-rule="evenodd" clip-rule="evenodd" d="M65.159 17.5809C65.159 26.4751 50.8753 33.6853 33.2572 33.6853C15.6383 33.6853 1.35492 26.4751 1.35492 17.5809C1.35492 8.68704 15.6383 1.47717 33.2572 1.47717C50.8753 1.47709 65.159 8.68704 65.159 17.5809ZM33.2572 2.74502C16.3293 2.74502 2.60545 9.38743 2.60545 17.5808C2.60545 25.7743 16.3293 32.4167 33.2572 32.4167C50.1846 32.4167 63.9079 25.7743 63.9079 17.5808C63.9079 9.38743 50.1846 2.74502 33.2572 2.74502Z" fill="#414B47"/>
<path fill-rule="evenodd" clip-rule="evenodd" d="M63.1147 17.5808C63.1147 25.3339 49.747 31.6192 33.2573 31.6192C16.7671 31.6192 3.39951 25.3339 3.39951 17.5808C3.39951 9.82824 16.7671 3.54333 33.2573 3.54333C49.7471 3.54333 63.1147 9.82815 63.1147 17.5808ZM52.3927 11.0086H47.2719L46.6481 12.8011H49.9626L46.1819 14.1171L45.932 14.844L51.7498 12.9262L52.3927 11.0086ZM19.7435 14.1548H17.6575C17.6575 14.1548 19.5908 8.97467 19.7458 8.58305C20.0216 7.88917 20.1863 7.93691 20.1863 7.93691H17.3052C17.6619 8.10848 17.3459 8.78471 17.3459 8.78471C17.3459 8.78471 15.0383 15.2449 14.8775 15.5676C14.7168 15.891 14.5964 15.9316 14.5964 15.9316H19.5858L20.2837 14.0183C20.2236 14.2005 19.7435 14.1548 19.7435 14.1548ZM28.4955 15.9233H30.8455C30.8455 15.9233 30.6845 15.6836 30.7851 15.4214C30.9243 15.0572 32.171 11.6462 32.171 11.6462L32.713 15.9233H34.8418L37.6324 8.31516C37.6324 8.31516 37.7466 7.95832 37.9023 7.95832L35.6404 7.95163C35.6404 7.95163 35.7051 8.21425 35.6245 8.41625C35.5447 8.61825 34.2588 12.0703 34.2588 12.0703L33.7568 7.95171H31.3274C31.3274 7.95171 31.4531 8.15338 31.3727 8.37536C31.3071 8.55545 28.7971 15.4816 28.7971 15.4816C28.7971 15.4816 28.6365 15.9233 28.4955 15.9233ZM39.2399 7.95389C39.2399 7.95389 39.4406 8.27687 39.1789 9.0235C38.9178 9.77071 36.8696 15.3221 36.8696 15.3221C36.8696 15.3221 36.7084 15.8443 36.4881 15.9458L39.7013 15.9421C39.7013 15.9421 43.5965 16.0868 44.8018 11.9708C44.8018 11.9708 46.328 7.91317 41.9099 7.95389H39.2399ZM39.5807 14.1038C39.5807 14.1038 39.591 14.1007 39.9519 14.1007C40.4986 14.1007 41.511 13.9795 42.1912 12.3143C43.3092 9.57716 41.7494 9.66971 41.7494 9.66971H41.1468L39.5807 14.1038ZM11.0054 22.3691H16.1261L16.7492 20.5763H13.4351L17.2156 19.2606L17.4661 18.534L11.6481 20.4518L11.0054 22.3691ZM19.9792 25.6759C19.8983 25.6759 19.8983 25.4153 19.8983 25.4153L20.8401 22.9029C20.8401 22.9029 22.0134 25.2173 22.094 25.3789C22.1744 25.5406 22.1337 25.6751 22.1337 25.6751H24.9406C24.6729 25.6751 24.3967 25.1637 24.3967 25.1637L22.9994 22.6431C24.9539 22.6431 25.5791 20.6956 25.5791 20.6956C26.5429 17.6001 23.2989 17.6807 23.2989 17.6807H19.9792C20.2199 17.95 20.0323 18.5153 20.0323 18.5153C20.0323 18.5153 17.9706 24.4408 17.8103 24.8987C17.6495 25.3562 17.3551 25.6759 17.3551 25.6759H19.9792ZM21.9686 19.5188L21.4245 21.1266H21.9333C21.9333 21.1266 22.9243 21.2143 23.2899 20.4223C23.2899 20.4223 23.7177 19.5147 22.522 19.5147C22.2603 19.5147 21.9686 19.5188 21.9686 19.5188ZM49.0228 25.7052C48.822 25.7093 48.9618 25.2153 48.9618 25.2153L49.8022 22.9321C49.8022 22.9321 50.935 25.2469 51.0145 25.409C51.0951 25.5703 51.0551 25.7048 51.0551 25.7048H53.9617C53.6937 25.7048 53.399 25.1934 53.399 25.1934L52.0011 22.672C53.9566 22.672 54.5448 20.7948 54.5448 20.7948C55.5715 17.5535 52.3017 17.7105 52.3017 17.7105H49.0083C49.2497 17.9797 49.0622 18.545 49.0622 18.545C49.0622 18.545 46.9146 24.4932 46.7534 24.9503C46.5929 25.4089 46.2845 25.7007 46.2845 25.7007L49.0228 25.7052ZM50.9367 21.1556C50.9367 21.1556 51.9201 21.2304 52.2211 20.4558C52.5763 19.5434 51.6898 19.5675 51.6898 19.5675H50.9629L50.4275 21.1556H50.9367ZM29.0502 25.8736C31.9477 25.8736 33.6719 23.0166 33.6719 20.9668C33.6719 18.8166 32.7928 17.475 30.7851 17.475C28.2235 17.475 26.5526 19.4288 26.1213 21.858C25.725 24.0919 26.9799 25.8736 29.0502 25.8736ZM29.2327 23.9844C29.9554 24.1185 30.75 23.5957 31.165 21.925C31.7942 19.3969 30.6344 19.3761 30.4228 19.3501C29.7815 19.2713 28.9255 20.0138 28.5777 21.5618C28.4184 22.2688 28.2495 23.8012 29.2327 23.9844ZM34.3597 17.7105C34.3597 17.7105 34.5589 17.818 34.5589 18.329V25.2469C34.5589 25.2469 34.5317 25.6256 34.3893 25.7048H36.5421C36.5421 25.7048 36.5421 25.5427 36.7558 25.2737C36.9702 25.0046 41.4415 18.9758 41.4415 18.9758C41.4415 18.9758 42.4612 17.7105 42.7285 17.7105H39.6473C39.6473 17.7105 39.8888 17.8722 39.7013 18.1682C39.5138 18.4644 36.775 22.5825 36.775 22.5825L36.8093 18.4287C36.8093 18.4287 36.8045 17.7627 37.0704 17.7067L34.3597 17.7105ZM47.3753 19.5965L48.0714 17.7087L42.8508 17.7092C42.8508 17.7092 43.0379 17.8753 42.7976 18.548C42.5562 19.2216 40.441 24.9533 40.441 24.9533C40.441 24.9533 40.0662 25.7067 39.9597 25.7067H45.3408L45.9836 23.7959C45.9836 23.7959 45.9035 23.9033 45.3947 23.9033H43.1185L43.6009 22.6114H45.3674C45.3674 22.6114 45.7427 22.5847 45.8229 22.6924L46.5456 20.6501C46.5456 20.6501 46.4928 20.8349 46.01 20.8349H44.2964L44.8059 19.4088H46.9742C46.9742 19.4088 47.2689 19.368 47.3753 19.5965ZM20.1579 15.9305H22.7335C22.7335 15.9305 22.7255 15.7317 22.7927 15.6025C22.9151 15.3693 23.2346 14.8065 23.2346 14.8065H25.8268L25.8318 15.5086C25.8318 15.5086 25.8451 15.7505 25.6543 15.9372H28.2249C28.2249 15.9372 28.034 15.8295 27.9989 15.5117L27.6764 8.48664C27.6764 8.48664 27.6625 8.03766 27.875 7.9431H25.325C25.325 7.9431 25.5036 8.165 25.1621 8.66966C24.8211 9.17441 20.4648 15.6678 20.4648 15.6678C20.4648 15.6678 20.3782 15.8347 20.1579 15.9305ZM25.7774 10.662L24.3461 13.0031H25.798L25.7774 10.662Z" fill="#414B47"/>
</g>
<defs>
<clipPath id="clip0_19_527">
<rect width="66.5354" height="35.0757" fill="white" transform="translate(-6.10352e-05 0.0557861)"/>
</clipPath>
</defs>
</svg>
