<svg width="30" height="31" viewBox="0 0 30 31" fill="none" xmlns="http://www.w3.org/2000/svg">
<path d="M6.71502 30.4707H0.495425V10.4417H6.71502V30.4707ZM3.60187 7.70954C1.61348 7.70954 0 6.06222 0 4.07338C0 2.08454 1.61348 0.470703 3.60187 0.470703C5.59027 0.470703 7.20375 2.08454 7.20375 4.07338C7.20375 6.06222 5.59027 7.70954 3.60187 7.70954ZM29.9933 30.4707H23.7871V20.7207C23.7871 18.397 23.7402 15.4171 20.5534 15.4171C17.3198 15.4171 16.8244 17.9417 16.8244 20.5533V30.4707H10.6115V10.4417H16.5767V13.1738H16.6637C17.4939 11.6002 19.5224 9.93945 22.5485 9.93945C28.8418 9.93945 30 14.0845 30 19.4685V30.4707H29.9933Z" fill="#857885"/>
</svg>
