<svg width="80" height="81" viewBox="0 0 80 81" fill="none" xmlns="http://www.w3.org/2000/svg">
<path d="M76.657 64.6598C82.5581 36.8216 77.7539 18.4606 74.6812 12.8317L74.6699 12.8111L74.6609 12.7895C73.4091 9.80557 70.5245 5.67884 65.9615 3.04573C61.6727 0.570861 55.8708 -0.603218 48.4743 1.77837L48.4788 1.79164C21.519 10.8997 8.1688 24.3896 4.89128 29.9018L4.87932 29.9219L4.86535 29.9407C2.93572 32.5383 0.854889 37.1232 0.914456 42.3911C0.970545 47.3515 2.92388 52.9534 8.767 58.1117L8.76956 58.1086C30.3376 76.188 48.7051 80.496 55.0985 80.4154L55.1218 80.4151L55.145 80.4172C58.3545 80.7048 63.3436 80.0923 67.8245 77.316C71.6319 74.957 75.0958 71.022 76.7877 64.6875L76.657 64.6598Z" fill="#F7F3FA"/>
</svg>
